<svg xmlns="http://www.w3.org/2000/svg" xmlns:xlink="http://www.w3.org/1999/xlink" xmlns:fi="http://pattern.flaticon.com/" x="0" y="0" width="1200" height="700" viewBox="0 0 1196.5811965811965 698.005698005698"><rect x="0px" y="0px" width="100%" height="100%" opacity="1" fill="#ffffff"/><defs><g transform="matrix(0.1697916491523753 0.04549553527192747 -0.04549553527192747 0.1697916491523753 -34.59503280498222 294.52111513567337)" id="L1_1039"><path d="m75 390h362c41.355469 0 75-33.644531 75-75v-240c0-41.355469-33.644531-75-75-75h-362c-41.355469 0-75 33.644531-75 75v240c0 41.355469 33.644531 75 75 75zm-45-315c0-24.8125 20.1875-45 45-45h362c24.8125 0 45 20.1875 45 45v240c0 24.8125-20.1875 45-45 45h-362c-24.8125 0-45-20.1875-45-45zm0 0"/><path d="m181 94.507812v203.898438l180.5-103.621094zm30 50.984376 89.5 49.722656-89.5 51.378906zm0 0"/></g><g transform="matrix(0.062277164310216904 0 0 0.062277164310216904 77.5 340)" id="L1_1040"><path d="M320.973,200.981c-0.8-18.4-4-38.8-8.8-58c-4.8-18.4-10.8-35.6-18-48.8c-28-49.2-58.4-41.6-94.8-32    c-11.6,2.8-24,6-36.8,7.2h-4c-12.8-1.2-25.2-4.4-36.8-7.2c-36.4-9.2-66.8-17.2-94.8,32.4c-7.2,13.2-13.6,30.4-18,48.8    c-4.8,19.2-8,39.6-8.8,58c-0.8,20.4,1.2,35.2,5.6,45.6c4.4,9.6,10.8,15.6,19.2,18c7.6,2,16.4,1.2,25.6-2.8    c15.6-6.4,33.6-20,51.2-36.4c12.4-12,35.6-18,58.8-18s46.4,6,58.8,18c17.6,16.4,35.6,30,51.2,36.4c9.2,3.6,18,4.8,25.6,2.8    c8-2.4,14.8-8,19.2-18.4C319.773,236.581,321.773,221.781,320.973,200.981z M301.773,240.981c-2.4,5.6-5.6,8.8-9.6,10    c-4.4,1.2-10,0.4-16.4-2c-14-5.6-30.4-18-46.4-33.2c-15.2-15.2-42-22.8-68.8-22.8s-53.6,7.6-69.2,22c-16.4,15.2-32.8,28-46.4,33.2    c-6.4,2.4-12,3.6-16.4,2c-4-1.2-7.2-4.4-9.6-10c-3.2-7.6-4.8-20-4-38.4c0.8-17.2,3.6-36.8,8.4-55.2c4.4-17.2,10-33.2,16.8-45.2    c22-39.6,47.6-33.2,78-25.2c12.4,3.2,25.2,6.4,39.2,7.6c0.4,0,0.4,0,0.8,0h4.4c0.4,0,0.4,0,0.8,0c14.4-1.2,27.2-4.4,39.6-7.6    c30.4-7.6,56-14.4,78,25.2c6.8,12,12.4,27.6,16.8,45.2c4.4,18.4,7.6,37.6,8.4,55.2    C306.973,220.181,305.373,232.581,301.773,240.981z"/><path d="M123.773,122.981c-4-3.6-8.8-6.4-14.4-6.8c-0.4-5.2-2.8-10.4-6.4-14l-0.4-0.4c-4.4-4.4-10-6.8-16.4-6.8    c-6.4,0-12.4,2.8-16.4,6.8c-3.6,3.6-6.4,8.8-6.8,14.4c-5.6,0.4-10.4,2.8-14.4,6.4l-0.4,0.4c-4.4,4.4-6.8,10-6.8,16.4    c0,6.4,2.8,12.4,6.8,16.4c4,4,8.8,6.4,14.8,6.8c0.4,5.6,2.8,10.8,6.8,14.4c4.4,4.4,10,6.8,16.4,6.8c6.4,0,12.4-2.8,16.4-6.8    c3.6-4,6.4-8.8,6.8-14.4c5.6-0.4,10.8-2.8,14.4-6.8c4.4-4.4,6.8-10,6.8-16.4C130.573,132.981,127.773,126.981,123.773,122.981z     M113.773,145.381c-1.6,1.6-3.6,2.4-6,2.4h-5.6c-4,0-7.6,3.2-7.6,7.6v5.2c0,2.4-0.8,4.4-2.4,6c-1.6,1.6-3.6,2.4-6,2.4    c-2.4,0-4.4-0.8-6-2.4c-1.6-1.6-2.4-3.6-2.4-6v-5.6c0-4-3.2-7.6-7.6-7.6h-5.6c-2.4,0-4.4-0.8-6-2.4c-1.2-1.2-2.4-3.2-2.4-5.6    c0-2.4,0.8-4.4,2.4-6c0,0,0,0,0.4-0.4c1.6-1.2,3.6-2,5.6-2h5.6c4,0,7.6-3.2,7.6-7.6v-5.6c0-2.4,0.8-4.4,2.4-6    c1.6-1.6,3.6-2.4,6-2.4c2.4,0,4.4,0.8,6,2.4c0,0,0,0,0.4,0.4c1.2,1.6,2,3.6,2,5.6v5.6c0,4,3.2,7.6,7.6,7.6h5.6    c2.4,0,4.4,0.8,6,2.4c1.6,1.6,2.4,3.6,2.4,6C116.173,141.781,115.373,143.781,113.773,145.381z"/><circle cx="230" cy="110" r="14"/><circle cx="230" cy="167" r="14"/><circle cx="201" cy="139" r="14"/><circle cx="258" cy="139" r="14"/></g><g transform="matrix(0.7547169923782349 0 0 0.7547169923782349 155 330)" id="L1_1041"><rect x="0px" y="0px" width="52px" height="53px" fill="#556080"/><path d="M23.5,25 23.5,17.954 23.5,11 34.5,18z" fill="#ffffff"/><rect x="0px" y="34px" width="52px" height="18px" fill="#424a60"/><path d="M46.5,45h-30c-0.553,0-1-0.447-1-1s0.447-1,1-1h30c0.553,0,1,0.447,1,1S47.053,45,46.5,45z" fill="#2a303d"/><path d="M6.5,48c-0.553,0-1-0.447-1-1v-6c0-0.553,0.447-1,1-1s1,0.447,1,1v6C7.5,47.553,7.053,48,6.5,48z" fill="#ffffff"/><path d="M10.5,48c-0.553,0-1-0.447-1-1v-6c0-0.553,0.447-1,1-1s1,0.447,1,1v6C11.5,47.553,11.053,48,10.5,48z  " fill="#ffffff"/><path d="M21.5,43h-5c-0.553,0-1,0.447-1,1s0.447,1,1,1h5V43z" fill="#dd352e"/><path d="M21.5,48c-0.553,0-1-0.447-1-1v-6c0-0.553,0.447-1,1-1s1,0.447,1,1v6C22.5,47.553,22.053,48,21.5,48z  " fill="#ffffff"/></g><g transform="matrix(0.3448275923728943 0 0 0.3448275923728943 252.5 340)" id="L1_1042"><circle cx="29" cy="29" r="29" fill="#694f87"/><g><path d="M29,11 44,33 29.273,33 14,33z" fill="#ffffff"/><path d="M44.02,34c-0.004,0-0.012,0.001-0.02,0H14c-0.371,0-0.711-0.205-0.884-0.533   c-0.174-0.327-0.151-0.724,0.058-1.03l15-22c0.373-0.547,1.279-0.547,1.652,0l14.904,21.86c0.179,0.181,0.289,0.429,0.289,0.703   C45.02,33.553,44.572,34,44.02,34z M15.893,32h26.215L29,12.775L15.893,32z" fill="#ffffff"/></g><g><rect x="14px" y="38px" width="30px" height="5px" fill="#ffffff"/><path d="M45,44H13v-7h32V44z M15,42h28v-3H15V42z" fill="#ffffff"/></g></g><g transform="matrix(0.6666666865348816 0 0 0.6666666865348816 67.5 67.5)" id="L1_1043"><path d="M30,0C13.458,0,0,13.458,0,30s13.458,30,30,30s30-13.458,30-30S46.542,0,30,0z M30,58C14.561,58,2,45.439,2,30   S14.561,2,30,2s28,12.561,28,28S45.439,58,30,58z"/><path d="M33,46h8V14h-8V46z M35,16h4v28h-4V16z"/><path d="M19,46h8V14h-8V46z M21,16h4v28h-4V16z"/></g><g transform="matrix(0.078125 0 0 0.078125 242.5 67.5)" id="L1_1044"><path d="M236.069,356.91c-1.859-1.87-4.439-2.93-7.069-2.93s-5.21,1.06-7.07,2.93c-1.86,1.86-2.93,4.43-2.93,7.07    c0,2.63,1.069,5.21,2.93,7.07c1.86,1.86,4.44,2.93,7.07,2.93s5.21-1.07,7.069-2.93c1.86-1.86,2.931-4.44,2.931-7.07    S237.93,358.77,236.069,356.91z"/><path d="M448,268.01c-5.522,0-10,4.477-10,10v43.979H266v-24.683c0-38.026-28.594-69.478-65.405-74.04    c7.275-8.978,11.646-20.401,11.646-32.831v-70.35c0-5.523-4.478-10-10-10h-52.322c-23.246,0-42.158,18.912-42.158,42.158v38.192    c0,12.429,4.37,23.852,11.646,32.831C82.594,227.829,54,259.281,54,297.307v24.683H20V81.744c0-4.276,3.501-7.754,7.805-7.754    h207.862c5.522,0,10-4.477,10-10s-4.478-10-10-10H27.805C12.474,53.99,0,66.44,0,81.744v296.492    c0,15.304,12.474,27.754,27.805,27.754H179.98v46.194C154.753,454.739,135,476.101,135,501.99c0,5.523,4.478,10,10,10h168    c5.522,0,10-4.477,10-10c0-25.888-19.753-47.25-44.979-49.806V405.99h152.175c15.331,0,27.805-12.45,27.805-27.754V278.01    C458,272.488,453.522,268.01,448,268.01z M127.76,152.245c0-12.218,9.94-22.158,22.158-22.158h42.322v15.966    c0,7.932-6.453,14.385-14.386,14.385H127.76V152.245z M127.76,180.438h50.095c5.135,0,10.006-1.139,14.386-3.166v13.165h-0.001    c0,17.777-14.463,32.24-32.24,32.24c-17.777,0-32.24-14.463-32.24-32.24V180.438z M171.669,242.677L160,254.346l-11.669-11.669    H171.669z M74,297.307c0-27.407,20.29-50.159,46.636-54.04l32.292,32.292c1.953,1.953,4.512,2.929,7.071,2.929    s5.118-0.976,7.071-2.929l32.292-32.292C225.71,247.148,246,269.9,246,297.307v24.683H74V297.307z M301.289,491.99h-144.58    c4.13-11.676,15.279-20.063,28.353-20.063h4.918h78.041h4.916C286.01,471.927,297.159,480.313,301.289,491.99z M199.98,451.927    V405.99h58.041v45.937H199.98z M438,378.236c0,4.275-3.501,7.754-7.805,7.754H27.805c-4.304,0-7.805-3.479-7.805-7.754V341.99h418    V378.236z"/><path d="M455.069,233.27c-1.859-1.86-4.439-2.93-7.069-2.93s-5.21,1.07-7.07,2.93c-1.86,1.87-2.93,4.44-2.93,7.07    c0,2.64,1.069,5.21,2.93,7.07c1.86,1.87,4.44,2.93,7.07,2.93s5.21-1.06,7.069-2.93c1.86-1.86,2.931-4.43,2.931-7.07    C458,237.71,456.93,235.13,455.069,233.27z"/><path d="M448,47.01h-75c-5.522,0-10,4.477-10,10s4.478,10,10,10h75c5.522,0,10-4.477,10-10S453.522,47.01,448,47.01z"/><path d="M339.069,49.94c-1.859-1.86-4.439-2.93-7.069-2.93s-5.21,1.07-7.07,2.93c-1.86,1.86-2.93,4.44-2.93,7.07    s1.069,5.21,2.93,7.07c1.861,1.86,4.44,2.93,7.07,2.93s5.21-1.07,7.069-2.93c1.86-1.86,2.931-4.44,2.931-7.07    S340.93,51.8,339.069,49.94z"/><path d="M448,91.01H332c-5.522,0-10,4.477-10,10s4.478,10,10,10h116c5.522,0,10-4.477,10-10S453.522,91.01,448,91.01z"/><path d="M448,135.01H332c-5.522,0-10,4.477-10,10c0,5.523,4.478,10,10,10h116c5.522,0,10-4.477,10-10    C458,139.487,453.522,135.01,448,135.01z"/><path d="M462,0.01H318c-27.57,0-50,22.43-50,50v107c0,25.655,19.42,46.859,44.333,49.681v25.985c0,4.044,2.437,7.691,6.173,9.239    c1.237,0.513,2.537,0.762,3.825,0.762c2.603,0,5.16-1.017,7.073-2.929l32.737-32.738H462c27.57,0,50-22.43,50-50v-107    C512,22.44,489.57,0.01,462,0.01z M492,157.01c0,16.542-13.458,30-30,30H358c-2.652,0-5.195,1.054-7.071,2.929l-18.596,18.596    V197.01c0-5.523-4.478-10-10-10H318c-16.542,0-30-13.458-30-30v-107c0-16.542,13.458-30,30-30h144c16.542,0,30,13.458,30,30    V157.01z"/></g><g transform="matrix(1.6666666269302368 0 0 1.6666666269302368 315 140)" id="L1_1045"><path d="M14.5,0c-0.552,0-1,0.447-1,1v40c0,0.553,0.448,1,1,1s1-0.447,1-1V1C15.5,0.447,15.052,0,14.5,0z"/><path d="M27.5,0c-0.552,0-1,0.447-1,1v40c0,0.553,0.448,1,1,1s1-0.447,1-1V1C28.5,0.447,28.052,0,27.5,0z"/></g><g transform="matrix(1.16577254102837 -0.31236781092692956 0.31236781092692956 1.16577254102837 132.13392955487774 150.25126258863963)" id="L1_1046"><circle cx="29" cy="29" r="29" fill="#c7cac7"/><g><rect x="33px" y="14px" width="6px" height="30px" fill="#ffffff"/><path d="M40,45h-8V13h8V45z M34,43h4V15h-4V43z" fill="#ffffff"/></g><g><rect x="19px" y="14px" width="6px" height="30px" fill="#ffffff"/><path d="M26,45h-8V13h8V45z M20,43h4V15h-4V43z" fill="#ffffff"/></g></g><g transform="matrix(0.0912134125828743 0 0 0.0912134125828743 62.5 237.5)" id="L1_1047"><path d="M526.76,131.045c-14.277-14.274-31.498-21.413-51.675-21.413h-63.953l-14.558-38.826    c-3.618-9.325-10.229-17.368-19.846-24.128c-9.613-6.757-19.462-10.138-29.551-10.138H200.996    c-10.088,0-19.939,3.381-29.552,10.138c-9.613,6.76-16.225,14.803-19.842,24.128l-14.56,38.826H73.089    c-20.179,0-37.401,7.139-51.678,21.413C7.137,145.32,0,162.544,0,182.721v255.813c0,20.178,7.137,37.404,21.411,51.675    c14.277,14.277,31.5,21.416,51.678,21.416h401.989c20.177,0,37.397-7.139,51.675-21.416    c14.273-14.271,21.412-31.497,21.412-51.675V182.721C548.169,162.544,541.03,145.32,526.76,131.045z M364.446,400.993    c-25.029,25.03-55.147,37.548-90.362,37.548s-65.331-12.518-90.362-37.548c-25.031-25.026-37.544-55.151-37.544-90.358    c0-35.218,12.517-65.333,37.544-90.364c25.028-25.031,55.148-37.544,90.362-37.544s65.333,12.516,90.362,37.544    c25.03,25.028,37.545,55.146,37.545,90.364C401.991,345.842,389.477,375.964,364.446,400.993z"/><path d="M274.084,228.403c-22.651,0-42.018,8.042-58.102,24.128c-16.084,16.084-24.126,35.448-24.126,58.104    c0,22.647,8.042,42.014,24.126,58.098c16.084,16.081,35.45,24.123,58.102,24.123c22.648,0,42.017-8.042,58.101-24.123    c16.084-16.084,24.127-35.45,24.127-58.098c0-22.655-8.043-42.019-24.127-58.104C316.102,236.446,296.732,228.403,274.084,228.403    z"/></g><g transform="matrix(2.25 0 0 2.25 217.5 217.5)" id="L1_1048"><path d="M40,40H0V0h40V40z M6,34h28V6H6V34z" fill="#424a60"/><rect x="6px" y="6px" width="28px" height="28px" fill="#d75a4a"/></g></defs><g fi:class="KUsePattern"><pattern id="pattern_L1_1039" width="350" height="350" patternUnits="userSpaceOnUse"><use xlink:href="#L1_1039" x="-350" y="-350"/><use xlink:href="#L1_1039" x="0" y="-350"/><use xlink:href="#L1_1039" x="350" y="-350"/><use xlink:href="#L1_1039" x="-350" y="0"/><use xlink:href="#L1_1039" x="0" y="0"/><use xlink:href="#L1_1039" x="350" y="0"/><use xlink:href="#L1_1039" x="-350" y="350"/><use xlink:href="#L1_1039" x="0" y="350"/><use xlink:href="#L1_1039" x="350" y="350"/></pattern><rect x="0" y="0" width="100%" height="100%" fill="url(#pattern_L1_1039)"/></g><g fi:class="KUsePattern"><pattern id="pattern_L1_1040" width="350" height="350" patternUnits="userSpaceOnUse"><use xlink:href="#L1_1040" x="-350" y="-350"/><use xlink:href="#L1_1040" x="0" y="-350"/><use xlink:href="#L1_1040" x="350" y="-350"/><use xlink:href="#L1_1040" x="-350" y="0"/><use xlink:href="#L1_1040" x="0" y="0"/><use xlink:href="#L1_1040" x="350" y="0"/><use xlink:href="#L1_1040" x="-350" y="350"/><use xlink:href="#L1_1040" x="0" y="350"/><use xlink:href="#L1_1040" x="350" y="350"/></pattern><rect x="0" y="0" width="100%" height="100%" fill="url(#pattern_L1_1040)"/></g><g fi:class="KUsePattern"><pattern id="pattern_L1_1041" width="350" height="350" patternUnits="userSpaceOnUse"><use xlink:href="#L1_1041" x="-350" y="-350"/><use xlink:href="#L1_1041" x="0" y="-350"/><use xlink:href="#L1_1041" x="350" y="-350"/><use xlink:href="#L1_1041" x="-350" y="0"/><use xlink:href="#L1_1041" x="0" y="0"/><use xlink:href="#L1_1041" x="350" y="0"/><use xlink:href="#L1_1041" x="-350" y="350"/><use xlink:href="#L1_1041" x="0" y="350"/><use xlink:href="#L1_1041" x="350" y="350"/></pattern><rect x="0" y="0" width="100%" height="100%" fill="url(#pattern_L1_1041)"/></g><g fi:class="KUsePattern"><pattern id="pattern_L1_1042" width="350" height="350" patternUnits="userSpaceOnUse"><use xlink:href="#L1_1042" x="-350" y="-350"/><use xlink:href="#L1_1042" x="0" y="-350"/><use xlink:href="#L1_1042" x="350" y="-350"/><use xlink:href="#L1_1042" x="-350" y="0"/><use xlink:href="#L1_1042" x="0" y="0"/><use xlink:href="#L1_1042" x="350" y="0"/><use xlink:href="#L1_1042" x="-350" y="350"/><use xlink:href="#L1_1042" x="0" y="350"/><use xlink:href="#L1_1042" x="350" y="350"/></pattern><rect x="0" y="0" width="100%" height="100%" fill="url(#pattern_L1_1042)"/></g><g fi:class="KUsePattern"><pattern id="pattern_L1_1043" width="350" height="350" patternUnits="userSpaceOnUse"><use xlink:href="#L1_1043" x="-350" y="-350"/><use xlink:href="#L1_1043" x="0" y="-350"/><use xlink:href="#L1_1043" x="350" y="-350"/><use xlink:href="#L1_1043" x="-350" y="0"/><use xlink:href="#L1_1043" x="0" y="0"/><use xlink:href="#L1_1043" x="350" y="0"/><use xlink:href="#L1_1043" x="-350" y="350"/><use xlink:href="#L1_1043" x="0" y="350"/><use xlink:href="#L1_1043" x="350" y="350"/></pattern><rect x="0" y="0" width="100%" height="100%" fill="url(#pattern_L1_1043)"/></g><g fi:class="KUsePattern"><pattern id="pattern_L1_1044" width="350" height="350" patternUnits="userSpaceOnUse"><use xlink:href="#L1_1044" x="-350" y="-350"/><use xlink:href="#L1_1044" x="0" y="-350"/><use xlink:href="#L1_1044" x="350" y="-350"/><use xlink:href="#L1_1044" x="-350" y="0"/><use xlink:href="#L1_1044" x="0" y="0"/><use xlink:href="#L1_1044" x="350" y="0"/><use xlink:href="#L1_1044" x="-350" y="350"/><use xlink:href="#L1_1044" x="0" y="350"/><use xlink:href="#L1_1044" x="350" y="350"/></pattern><rect x="0" y="0" width="100%" height="100%" fill="url(#pattern_L1_1044)"/></g><g fi:class="KUsePattern"><pattern id="pattern_L1_1045" width="350" height="350" patternUnits="userSpaceOnUse"><use xlink:href="#L1_1045" x="-350" y="-350"/><use xlink:href="#L1_1045" x="0" y="-350"/><use xlink:href="#L1_1045" x="350" y="-350"/><use xlink:href="#L1_1045" x="-350" y="0"/><use xlink:href="#L1_1045" x="0" y="0"/><use xlink:href="#L1_1045" x="350" y="0"/><use xlink:href="#L1_1045" x="-350" y="350"/><use xlink:href="#L1_1045" x="0" y="350"/><use xlink:href="#L1_1045" x="350" y="350"/></pattern><rect x="0" y="0" width="100%" height="100%" fill="url(#pattern_L1_1045)"/></g><g fi:class="KUsePattern"><pattern id="pattern_L1_1046" width="350" height="350" patternUnits="userSpaceOnUse"><use xlink:href="#L1_1046" x="-350" y="-350"/><use xlink:href="#L1_1046" x="0" y="-350"/><use xlink:href="#L1_1046" x="350" y="-350"/><use xlink:href="#L1_1046" x="-350" y="0"/><use xlink:href="#L1_1046" x="0" y="0"/><use xlink:href="#L1_1046" x="350" y="0"/><use xlink:href="#L1_1046" x="-350" y="350"/><use xlink:href="#L1_1046" x="0" y="350"/><use xlink:href="#L1_1046" x="350" y="350"/></pattern><rect x="0" y="0" width="100%" height="100%" fill="url(#pattern_L1_1046)"/></g><g fi:class="KUsePattern"><pattern id="pattern_L1_1047" width="350" height="350" patternUnits="userSpaceOnUse"><use xlink:href="#L1_1047" x="-350" y="-350"/><use xlink:href="#L1_1047" x="0" y="-350"/><use xlink:href="#L1_1047" x="350" y="-350"/><use xlink:href="#L1_1047" x="-350" y="0"/><use xlink:href="#L1_1047" x="0" y="0"/><use xlink:href="#L1_1047" x="350" y="0"/><use xlink:href="#L1_1047" x="-350" y="350"/><use xlink:href="#L1_1047" x="0" y="350"/><use xlink:href="#L1_1047" x="350" y="350"/></pattern><rect x="0" y="0" width="100%" height="100%" fill="url(#pattern_L1_1047)"/></g><g fi:class="KUsePattern"><pattern id="pattern_L1_1048" width="350" height="350" patternUnits="userSpaceOnUse"><use xlink:href="#L1_1048" x="-350" y="-350"/><use xlink:href="#L1_1048" x="0" y="-350"/><use xlink:href="#L1_1048" x="350" y="-350"/><use xlink:href="#L1_1048" x="-350" y="0"/><use xlink:href="#L1_1048" x="0" y="0"/><use xlink:href="#L1_1048" x="350" y="0"/><use xlink:href="#L1_1048" x="-350" y="350"/><use xlink:href="#L1_1048" x="0" y="350"/><use xlink:href="#L1_1048" x="350" y="350"/></pattern><rect x="0" y="0" width="100%" height="100%" fill="url(#pattern_L1_1048)"/></g></svg>